<svg xmlns="http://www.w3.org/2000/svg" viewBox="0 0 64 64">
  <defs>
    <linearGradient id="g" x1="0" y1="0" x2="1" y2="1">
      <stop offset="0" stop-color="#00ff41"/>
      <stop offset="1" stop-color="#00f3ff"/>
    </linearGradient>
  </defs>
  <rect x="2" y="2" width="60" height="60" rx="12" fill="#0a0a0a" stroke="url(#g)" stroke-width="2"/>
  <g fill="none" stroke="url(#g)" stroke-width="2" opacity="0.6">
    <path d="M10 24h44M10 40h44"/>
    <path d="M20 12l-6 6M44 12l6 6M20 52l-6-6M44 52l6-6"/>
  </g>
  <g fill="none" stroke="#00ff41" stroke-width="3">
    <path d="M24 20h10c6 0 10 3 10 8s-4 8-10 8h-10"/>
    <path d="M24 36h12c4 0 6 2 6 6s-2 6-6 6H24"/>
  </g>
  <circle cx="32" cy="8" r="2" fill="#00f3ff"/>
  <circle cx="56" cy="32" r="2" fill="#00f3ff"/>
  <circle cx="8" cy="32" r="2" fill="#00f3ff"/>
</svg>
